<?xml version="1.0" standalone="no"?>
<!DOCTYPE svg PUBLIC "-//W3C//DTD SVG 20010904//EN"
 "http://www.w3.org/TR/2001/REC-SVG-20010904/DTD/svg10.dtd">
<svg version="1.0" xmlns="http://www.w3.org/2000/svg"
 width="512.000000pt" height="512.000000pt" viewBox="0 0 512.000000 512.000000"
 preserveAspectRatio="xMidYMid meet">
<metadata>
Created by potrace 1.11, written by Peter Selinger 2001-2013
</metadata>
<g transform="translate(0.000000,512.000000) scale(0.100000,-0.100000)"
fill="#000000" stroke="none">
<path d="M2485 4662 c-2 -2 -41 -6 -87 -8 -46 -2 -94 -5 -108 -8 -126 -19
-148 -23 -159 -30 -5 -3 -24 -8 -42 -10 -55 -7 -111 -22 -167 -45 -29 -11 -56
-20 -60 -20 -14 2 -52 -13 -52 -21 0 -9 -86 -70 -98 -70 -4 0 -31 -23 -60 -50
-30 -28 -60 -50 -68 -50 -8 0 -14 -4 -14 -9 0 -16 -88 -101 -105 -101 -8 0
-25 -6 -36 -12 -27 -16 -189 -178 -189 -189 0 -5 -10 -17 -22 -29 -12 -11 -19
-20 -15 -20 4 0 -2 -23 -13 -50 -22 -57 -63 -106 -122 -147 -55 -37 -100 -84
-120 -124 -18 -36 -47 -141 -54 -198 -3 -18 -10 -43 -16 -55 -6 -11 -11 -22
-10 -23 8 -12 -4 -38 -36 -79 -73 -94 -89 -149 -87 -304 3 -130 7 -159 35
-230 11 -28 22 -65 26 -83 3 -17 7 -36 8 -42 3 -12 14 -55 27 -110 5 -22 11
-51 13 -65 2 -14 9 -44 14 -68 6 -23 10 -45 11 -47 1 -3 2 -6 2 -7 1 -2 2 -14
4 -28 1 -14 5 -38 8 -55 4 -16 10 -43 13 -60 22 -125 69 -246 127 -330 18 -28
36 -61 40 -75 3 -14 8 -36 12 -50 7 -31 13 -90 20 -200 3 -47 7 -105 10 -130
2 -25 6 -69 9 -98 6 -75 51 -125 121 -138 30 -6 175 -4 215 2 71 11 90 11 90
2 0 -5 6 -8 13 -7 6 2 30 -6 52 -16 22 -10 45 -19 51 -20 34 -8 66 -44 99
-111 21 -41 52 -97 71 -124 19 -27 34 -53 34 -57 0 -5 9 -14 19 -20 33 -20 81
-99 85 -140 3 -21 7 -47 9 -58 3 -11 8 -38 11 -60 8 -45 17 -59 63 -96 22 -18
41 -26 62 -24 17 1 31 -1 31 -6 0 -5 11 -7 24 -3 13 3 34 0 46 -6 14 -7 20 -8
16 -1 -4 6 6 9 29 7 20 -1 38 0 40 3 1 3 26 6 54 5 29 -1 51 3 51 9 0 6 3 7 6
4 4 -3 14 -2 24 3 37 20 160 48 160 36 0 -8 2 -8 8 0 7 12 30 17 72 15 18 -1
29 -10 39 -33 8 -18 24 -46 36 -63 37 -52 37 -53 5 -70 -16 -8 -30 -12 -30 -8
0 5 -5 0 -11 -10 -5 -9 -15 -17 -20 -17 -11 0 -82 -51 -87 -62 -2 -5 -7 -8
-12 -8 -10 0 -78 -68 -111 -112 -24 -30 -49 -113 -41 -136 3 -9 315 -12 1338
-12 l1334 0 0 144 c0 115 -3 148 -15 160 -8 8 -15 19 -15 24 0 6 -6 12 -12 15
-7 3 -22 22 -33 43 -22 43 -44 70 -125 153 -30 31 -64 69 -75 85 -34 49 -118
131 -165 161 -62 39 -94 76 -127 143 -15 31 -30 59 -33 62 -10 9 -44 75 -41
80 1 3 -22 39 -52 80 -30 41 -77 125 -106 185 -29 61 -58 121 -66 135 -7 14
-13 27 -12 30 0 3 -14 36 -32 74 -18 38 -40 87 -48 110 -9 22 -27 60 -40 84
-13 23 -21 42 -17 42 4 0 2 6 -4 13 -9 11 -14 30 -28 112 -5 28 -8 177 -4 200
3 16 -1 116 -6 165 -3 25 -6 51 -6 58 -1 6 -4 12 -8 12 -4 0 -7 6 -8 13 -5 41
-10 72 -12 72 -6 0 -11 60 -15 200 -7 210 -12 295 -20 325 -3 14 -7 54 -9 90
-2 36 -7 74 -12 84 -4 11 -4 17 2 13 18 -11 3 330 -17 373 -1 3 -3 10 -4 15
-1 6 -7 24 -14 40 -7 17 -14 38 -16 47 -2 9 -9 26 -15 37 -6 12 -8 21 -5 21 3
0 -1 13 -9 29 -9 16 -12 31 -9 35 4 3 1 6 -5 6 -7 0 -11 3 -10 8 1 7 -14 50
-34 92 -14 28 -67 108 -85 127 -6 7 -15 22 -18 33 -3 11 -10 20 -15 20 -4 0
-26 30 -49 68 -62 100 -64 103 -86 126 -67 71 -131 149 -168 204 -32 48 -51
65 -82 77 -71 25 -110 32 -155 27 -89 -9 -135 -7 -216 12 -21 4 -64 26 -74 37
-7 7 -100 45 -135 54 -31 9 -262 14 -270 7z"/>
</g>
</svg>
